<svg xmlns="http://www.w3.org/2000/svg" width="1024" height="768" viewBox="0 0 1024 768"><defs><linearGradient id="g" x1="0" y1="0" x2="0" y2="1"><stop offset="0" stop-color="#8FB8E8"/><stop offset="1" stop-color="#E4F0FF"/></linearGradient></defs><rect width="1024" height="768" fill="url(#g)"/><g opacity="0.55" transform="translate(280 84) scale(0.81)"><ellipse cx="0" cy="0" rx="70" ry="28" fill="#fff"/><ellipse cx="-45" cy="10" rx="45" ry="22" fill="#fff"/><ellipse cx="45" cy="8" rx="50" ry="24" fill="#fff"/></g><g opacity="0.55" transform="translate(265 70) scale(0.73)"><ellipse cx="0" cy="0" rx="70" ry="28" fill="#fff"/><ellipse cx="-45" cy="10" rx="45" ry="22" fill="#fff"/><ellipse cx="45" cy="8" rx="50" ry="24" fill="#fff"/></g><g opacity="0.55" transform="translate(158 216) scale(1.37)"><ellipse cx="0" cy="0" rx="70" ry="28" fill="#fff"/><ellipse cx="-45" cy="10" rx="45" ry="22" fill="#fff"/><ellipse cx="45" cy="8" rx="50" ry="24" fill="#fff"/></g><rect x="307.2" y="322.56" width="409.6" height="445.43999999999994" fill="#8C93A8"/><rect x="245.76" y="245.76" width="70" height="522.24" fill="#767D93"/><rect x="696.32" y="245.76" width="70" height="522.24" fill="#767D93"/><polygon points="245.76,245.76 280.76,153.60000000000002 315.76,245.76" fill="#B4506B"/><polygon points="696.32,245.76 731.32,153.60000000000002 766.32,245.76" fill="#B4506B"/></svg>
