<svg xmlns="http://www.w3.org/2000/svg" width="1024" height="768" viewBox="0 0 1024 768"><defs></defs><rect width="1024" height="768" fill="#2A252F"/><rect x="0" y="0" width="76" height="44" rx="3" fill="#3A3440" stroke="#2A252F" stroke-width="2"/><rect x="80" y="0" width="76" height="44" rx="3" fill="#3A3440" stroke="#2A252F" stroke-width="2"/><rect x="160" y="0" width="76" height="44" rx="3" fill="#3A3440" stroke="#2A252F" stroke-width="2"/><rect x="240" y="0" width="76" height="44" rx="3" fill="#3A3440" stroke="#2A252F" stroke-width="2"/><rect x="320" y="0" width="76" height="44" rx="3" fill="#3A3440" stroke="#2A252F" stroke-width="2"/><rect x="400" y="0" width="76" height="44" rx="3" fill="#3A3440" stroke="#2A252F" stroke-width="2"/><rect x="480" y="0" width="76" height="44" rx="3" fill="#3A3440" stroke="#2A252F" stroke-width="2"/><rect x="560" y="0" width="76" height="44" rx="3" fill="#3A3440" stroke="#2A252F" stroke-width="2"/><rect x="640" y="0" width="76" height="44" rx="3" fill="#3A3440" stroke="#2A252F" stroke-width="2"/><rect x="720" y="0" width="76" height="44" rx="3" fill="#3A3440" stroke="#2A252F" stroke-width="2"/><rect x="800" y="0" width="76" height="44" rx="3" fill="#3A3440" stroke="#2A252F" stroke-width="2"/><rect x="880" y="0" width="76" height="44" rx="3" fill="#3A3440" stroke="#2A252F" stroke-width="2"/><rect x="960" y="0" width="76" height="44" rx="3" fill="#3A3440" stroke="#2A252F" stroke-width="2"/><rect x="-40" y="48" width="76" height="44" rx="3" fill="#3A3440" stroke="#2A252F" stroke-width="2"/><rect x="40" y="48" width="76" height="44" rx="3" fill="#3A3440" stroke="#2A252F" stroke-width="2"/><rect x="120" y="48" width="76" height="44" rx="3" fill="#3A3440" stroke="#2A252F" stroke-width="2"/><rect x="200" y="48" width="76" height="44" rx="3" fill="#3A3440" stroke="#2A252F" stroke-width="2"/><rect x="280" y="48" width="76" height="44" rx="3" fill="#3A3440" stroke="#2A252F" stroke-width="2"/><rect x="360" y="48" width="76" height="44" rx="3" fill="#3A3440" stroke="#2A252F" stroke-width="2"/><rect x="440" y="48" width="76" height="44" rx="3" fill="#3A3440" stroke="#2A252F" stroke-width="2"/><rect x="520" y="48" width="76" height="44" rx="3" fill="#3A3440" stroke="#2A252F" stroke-width="2"/><rect x="600" y="48" width="76" height="44" rx="3" fill="#3A3440" stroke="#2A252F" stroke-width="2"/><rect x="680" y="48" width="76" height="44" rx="3" fill="#3A3440" stroke="#2A252F" stroke-width="2"/><rect x="760" y="48" width="76" height="44" rx="3" fill="#3A3440" stroke="#2A252F" stroke-width="2"/><rect x="840" y="48" width="76" height="44" rx="3" fill="#3A3440" stroke="#2A252F" stroke-width="2"/><rect x="920" y="48" width="76" height="44" rx="3" fill="#3A3440" stroke="#2A252F" stroke-width="2"/><rect x="1000" y="48" width="76" height="44" rx="3" fill="#3A3440" stroke="#2A252F" stroke-width="2"/><rect x="0" y="96" width="76" height="44" rx="3" fill="#3A3440" stroke="#2A252F" stroke-width="2"/><rect x="80" y="96" width="76" height="44" rx="3" fill="#3A3440" stroke="#2A252F" stroke-width="2"/><rect x="160" y="96" width="76" height="44" rx="3" fill="#3A3440" stroke="#2A252F" stroke-width="2"/><rect x="240" y="96" width="76" height="44" rx="3" fill="#3A3440" stroke="#2A252F" stroke-width="2"/><rect x="320" y="96" width="76" height="44" rx="3" fill="#3A3440" stroke="#2A252F" stroke-width="2"/><rect x="400" y="96" width="76" height="44" rx="3" fill="#3A3440" stroke="#2A252F" stroke-width="2"/><rect x="480" y="96" width="76" height="44" rx="3" fill="#3A3440" stroke="#2A252F" stroke-width="2"/><rect x="560" y="96" width="76" height="44" rx="3" fill="#3A3440" stroke="#2A252F" stroke-width="2"/><rect x="640" y="96" width="76" height="44" rx="3" fill="#3A3440" stroke="#2A252F" stroke-width="2"/><rect x="720" y="96" width="76" height="44" rx="3" fill="#3A3440" stroke="#2A252F" stroke-width="2"/><rect x="800" y="96" width="76" height="44" rx="3" fill="#3A3440" stroke="#2A252F" stroke-width="2"/><rect x="880" y="96" width="76" height="44" rx="3" fill="#3A3440" stroke="#2A252F" stroke-width="2"/><rect x="960" y="96" width="76" height="44" rx="3" fill="#3A3440" stroke="#2A252F" stroke-width="2"/><rect x="-40" y="144" width="76" height="44" rx="3" fill="#3A3440" stroke="#2A252F" stroke-width="2"/><rect x="40" y="144" width="76" height="44" rx="3" fill="#3A3440" stroke="#2A252F" stroke-width="2"/><rect x="120" y="144" width="76" height="44" rx="3" fill="#3A3440" stroke="#2A252F" stroke-width="2"/><rect x="200" y="144" width="76" height="44" rx="3" fill="#3A3440" stroke="#2A252F" stroke-width="2"/><rect x="280" y="144" width="76" height="44" rx="3" fill="#3A3440" stroke="#2A252F" stroke-width="2"/><rect x="360" y="144" width="76" height="44" rx="3" fill="#3A3440" stroke="#2A252F" stroke-width="2"/><rect x="440" y="144" width="76" height="44" rx="3" fill="#3A3440" stroke="#2A252F" stroke-width="2"/><rect x="520" y="144" width="76" height="44" rx="3" fill="#3A3440" stroke="#2A252F" stroke-width="2"/><rect x="600" y="144" width="76" height="44" rx="3" fill="#3A3440" stroke="#2A252F" stroke-width="2"/><rect x="680" y="144" width="76" height="44" rx="3" fill="#3A3440" stroke="#2A252F" stroke-width="2"/><rect x="760" y="144" width="76" height="44" rx="3" fill="#3A3440" stroke="#2A252F" stroke-width="2"/><rect x="840" y="144" width="76" height="44" rx="3" fill="#3A3440" stroke="#2A252F" stroke-width="2"/><rect x="920" y="144" width="76" height="44" rx="3" fill="#3A3440" stroke="#2A252F" stroke-width="2"/><rect x="1000" y="144" width="76" height="44" rx="3" fill="#3A3440" stroke="#2A252F" stroke-width="2"/><rect x="0" y="192" width="76" height="44" rx="3" fill="#3A3440" stroke="#2A252F" stroke-width="2"/><rect x="80" y="192" width="76" height="44" rx="3" fill="#3A3440" stroke="#2A252F" stroke-width="2"/><rect x="160" y="192" width="76" height="44" rx="3" fill="#3A3440" stroke="#2A252F" stroke-width="2"/><rect x="240" y="192" width="76" height="44" rx="3" fill="#3A3440" stroke="#2A252F" stroke-width="2"/><rect x="320" y="192" width="76" height="44" rx="3" fill="#3A3440" stroke="#2A252F" stroke-width="2"/><rect x="400" y="192" width="76" height="44" rx="3" fill="#3A3440" stroke="#2A252F" stroke-width="2"/><rect x="480" y="192" width="76" height="44" rx="3" fill="#3A3440" stroke="#2A252F" stroke-width="2"/><rect x="560" y="192" width="76" height="44" rx="3" fill="#3A3440" stroke="#2A252F" stroke-width="2"/><rect x="640" y="192" width="76" height="44" rx="3" fill="#3A3440" stroke="#2A252F" stroke-width="2"/><rect x="720" y="192" width="76" height="44" rx="3" fill="#3A3440" stroke="#2A252F" stroke-width="2"/><rect x="800" y="192" width="76" height="44" rx="3" fill="#3A3440" stroke="#2A252F" stroke-width="2"/><rect x="880" y="192" width="76" height="44" rx="3" fill="#3A3440" stroke="#2A252F" stroke-width="2"/><rect x="960" y="192" width="76" height="44" rx="3" fill="#3A3440" stroke="#2A252F" stroke-width="2"/><rect x="-40" y="240" width="76" height="44" rx="3" fill="#3A3440" stroke="#2A252F" stroke-width="2"/><rect x="40" y="240" width="76" height="44" rx="3" fill="#3A3440" stroke="#2A252F" stroke-width="2"/><rect x="120" y="240" width="76" height="44" rx="3" fill="#3A3440" stroke="#2A252F" stroke-width="2"/><rect x="200" y="240" width="76" height="44" rx="3" fill="#3A3440" stroke="#2A252F" stroke-width="2"/><rect x="280" y="240" width="76" height="44" rx="3" fill="#3A3440" stroke="#2A252F" stroke-width="2"/><rect x="360" y="240" width="76" height="44" rx="3" fill="#3A3440" stroke="#2A252F" stroke-width="2"/><rect x="440" y="240" width="76" height="44" rx="3" fill="#3A3440" stroke="#2A252F" stroke-width="2"/><rect x="520" y="240" width="76" height="44" rx="3" fill="#3A3440" stroke="#2A252F" stroke-width="2"/><rect x="600" y="240" width="76" height="44" rx="3" fill="#3A3440" stroke="#2A252F" stroke-width="2"/><rect x="680" y="240" width="76" height="44" rx="3" fill="#3A3440" stroke="#2A252F" stroke-width="2"/><rect x="760" y="240" width="76" height="44" rx="3" fill="#3A3440" stroke="#2A252F" stroke-width="2"/><rect x="840" y="240" width="76" height="44" rx="3" fill="#3A3440" stroke="#2A252F" stroke-width="2"/><rect x="920" y="240" width="76" height="44" rx="3" fill="#3A3440" stroke="#2A252F" stroke-width="2"/><rect x="1000" y="240" width="76" height="44" rx="3" fill="#3A3440" stroke="#2A252F" stroke-width="2"/><rect x="0" y="288" width="76" height="44" rx="3" fill="#3A3440" stroke="#2A252F" stroke-width="2"/><rect x="80" y="288" width="76" height="44" rx="3" fill="#3A3440" stroke="#2A252F" stroke-width="2"/><rect x="160" y="288" width="76" height="44" rx="3" fill="#3A3440" stroke="#2A252F" stroke-width="2"/><rect x="240" y="288" width="76" height="44" rx="3" fill="#3A3440" stroke="#2A252F" stroke-width="2"/><rect x="320" y="288" width="76" height="44" rx="3" fill="#3A3440" stroke="#2A252F" stroke-width="2"/><rect x="400" y="288" width="76" height="44" rx="3" fill="#3A3440" stroke="#2A252F" stroke-width="2"/><rect x="480" y="288" width="76" height="44" rx="3" fill="#3A3440" stroke="#2A252F" stroke-width="2"/><rect x="560" y="288" width="76" height="44" rx="3" fill="#3A3440" stroke="#2A252F" stroke-width="2"/><rect x="640" y="288" width="76" height="44" rx="3" fill="#3A3440" stroke="#2A252F" stroke-width="2"/><rect x="720" y="288" width="76" height="44" rx="3" fill="#3A3440" stroke="#2A252F" stroke-width="2"/><rect x="800" y="288" width="76" height="44" rx="3" fill="#3A3440" stroke="#2A252F" stroke-width="2"/><rect x="880" y="288" width="76" height="44" rx="3" fill="#3A3440" stroke="#2A252F" stroke-width="2"/><rect x="960" y="288" width="76" height="44" rx="3" fill="#3A3440" stroke="#2A252F" stroke-width="2"/><rect x="-40" y="336" width="76" height="44" rx="3" fill="#3A3440" stroke="#2A252F" stroke-width="2"/><rect x="40" y="336" width="76" height="44" rx="3" fill="#3A3440" stroke="#2A252F" stroke-width="2"/><rect x="120" y="336" width="76" height="44" rx="3" fill="#3A3440" stroke="#2A252F" stroke-width="2"/><rect x="200" y="336" width="76" height="44" rx="3" fill="#3A3440" stroke="#2A252F" stroke-width="2"/><rect x="280" y="336" width="76" height="44" rx="3" fill="#3A3440" stroke="#2A252F" stroke-width="2"/><rect x="360" y="336" width="76" height="44" rx="3" fill="#3A3440" stroke="#2A252F" stroke-width="2"/><rect x="440" y="336" width="76" height="44" rx="3" fill="#3A3440" stroke="#2A252F" stroke-width="2"/><rect x="520" y="336" width="76" height="44" rx="3" fill="#3A3440" stroke="#2A252F" stroke-width="2"/><rect x="600" y="336" width="76" height="44" rx="3" fill="#3A3440" stroke="#2A252F" stroke-width="2"/><rect x="680" y="336" width="76" height="44" rx="3" fill="#3A3440" stroke="#2A252F" stroke-width="2"/><rect x="760" y="336" width="76" height="44" rx="3" fill="#3A3440" stroke="#2A252F" stroke-width="2"/><rect x="840" y="336" width="76" height="44" rx="3" fill="#3A3440" stroke="#2A252F" stroke-width="2"/><rect x="920" y="336" width="76" height="44" rx="3" fill="#3A3440" stroke="#2A252F" stroke-width="2"/><rect x="1000" y="336" width="76" height="44" rx="3" fill="#3A3440" stroke="#2A252F" stroke-width="2"/><rect x="0" y="384" width="76" height="44" rx="3" fill="#3A3440" stroke="#2A252F" stroke-width="2"/><rect x="80" y="384" width="76" height="44" rx="3" fill="#3A3440" stroke="#2A252F" stroke-width="2"/><rect x="160" y="384" width="76" height="44" rx="3" fill="#3A3440" stroke="#2A252F" stroke-width="2"/><rect x="240" y="384" width="76" height="44" rx="3" fill="#3A3440" stroke="#2A252F" stroke-width="2"/><rect x="320" y="384" width="76" height="44" rx="3" fill="#3A3440" stroke="#2A252F" stroke-width="2"/><rect x="400" y="384" width="76" height="44" rx="3" fill="#3A3440" stroke="#2A252F" stroke-width="2"/><rect x="480" y="384" width="76" height="44" rx="3" fill="#3A3440" stroke="#2A252F" stroke-width="2"/><rect x="560" y="384" width="76" height="44" rx="3" fill="#3A3440" stroke="#2A252F" stroke-width="2"/><rect x="640" y="384" width="76" height="44" rx="3" fill="#3A3440" stroke="#2A252F" stroke-width="2"/><rect x="720" y="384" width="76" height="44" rx="3" fill="#3A3440" stroke="#2A252F" stroke-width="2"/><rect x="800" y="384" width="76" height="44" rx="3" fill="#3A3440" stroke="#2A252F" stroke-width="2"/><rect x="880" y="384" width="76" height="44" rx="3" fill="#3A3440" stroke="#2A252F" stroke-width="2"/><rect x="960" y="384" width="76" height="44" rx="3" fill="#3A3440" stroke="#2A252F" stroke-width="2"/><rect x="-40" y="432" width="76" height="44" rx="3" fill="#3A3440" stroke="#2A252F" stroke-width="2"/><rect x="40" y="432" width="76" height="44" rx="3" fill="#3A3440" stroke="#2A252F" stroke-width="2"/><rect x="120" y="432" width="76" height="44" rx="3" fill="#3A3440" stroke="#2A252F" stroke-width="2"/><rect x="200" y="432" width="76" height="44" rx="3" fill="#3A3440" stroke="#2A252F" stroke-width="2"/><rect x="280" y="432" width="76" height="44" rx="3" fill="#3A3440" stroke="#2A252F" stroke-width="2"/><rect x="360" y="432" width="76" height="44" rx="3" fill="#3A3440" stroke="#2A252F" stroke-width="2"/><rect x="440" y="432" width="76" height="44" rx="3" fill="#3A3440" stroke="#2A252F" stroke-width="2"/><rect x="520" y="432" width="76" height="44" rx="3" fill="#3A3440" stroke="#2A252F" stroke-width="2"/><rect x="600" y="432" width="76" height="44" rx="3" fill="#3A3440" stroke="#2A252F" stroke-width="2"/><rect x="680" y="432" width="76" height="44" rx="3" fill="#3A3440" stroke="#2A252F" stroke-width="2"/><rect x="760" y="432" width="76" height="44" rx="3" fill="#3A3440" stroke="#2A252F" stroke-width="2"/><rect x="840" y="432" width="76" height="44" rx="3" fill="#3A3440" stroke="#2A252F" stroke-width="2"/><rect x="920" y="432" width="76" height="44" rx="3" fill="#3A3440" stroke="#2A252F" stroke-width="2"/><rect x="1000" y="432" width="76" height="44" rx="3" fill="#3A3440" stroke="#2A252F" stroke-width="2"/><rect x="0" y="480" width="76" height="44" rx="3" fill="#3A3440" stroke="#2A252F" stroke-width="2"/><rect x="80" y="480" width="76" height="44" rx="3" fill="#3A3440" stroke="#2A252F" stroke-width="2"/><rect x="160" y="480" width="76" height="44" rx="3" fill="#3A3440" stroke="#2A252F" stroke-width="2"/><rect x="240" y="480" width="76" height="44" rx="3" fill="#3A3440" stroke="#2A252F" stroke-width="2"/><rect x="320" y="480" width="76" height="44" rx="3" fill="#3A3440" stroke="#2A252F" stroke-width="2"/><rect x="400" y="480" width="76" height="44" rx="3" fill="#3A3440" stroke="#2A252F" stroke-width="2"/><rect x="480" y="480" width="76" height="44" rx="3" fill="#3A3440" stroke="#2A252F" stroke-width="2"/><rect x="560" y="480" width="76" height="44" rx="3" fill="#3A3440" stroke="#2A252F" stroke-width="2"/><rect x="640" y="480" width="76" height="44" rx="3" fill="#3A3440" stroke="#2A252F" stroke-width="2"/><rect x="720" y="480" width="76" height="44" rx="3" fill="#3A3440" stroke="#2A252F" stroke-width="2"/><rect x="800" y="480" width="76" height="44" rx="3" fill="#3A3440" stroke="#2A252F" stroke-width="2"/><rect x="880" y="480" width="76" height="44" rx="3" fill="#3A3440" stroke="#2A252F" stroke-width="2"/><rect x="960" y="480" width="76" height="44" rx="3" fill="#3A3440" stroke="#2A252F" stroke-width="2"/><rect x="-40" y="528" width="76" height="44" rx="3" fill="#3A3440" stroke="#2A252F" stroke-width="2"/><rect x="40" y="528" width="76" height="44" rx="3" fill="#3A3440" stroke="#2A252F" stroke-width="2"/><rect x="120" y="528" width="76" height="44" rx="3" fill="#3A3440" stroke="#2A252F" stroke-width="2"/><rect x="200" y="528" width="76" height="44" rx="3" fill="#3A3440" stroke="#2A252F" stroke-width="2"/><rect x="280" y="528" width="76" height="44" rx="3" fill="#3A3440" stroke="#2A252F" stroke-width="2"/><rect x="360" y="528" width="76" height="44" rx="3" fill="#3A3440" stroke="#2A252F" stroke-width="2"/><rect x="440" y="528" width="76" height="44" rx="3" fill="#3A3440" stroke="#2A252F" stroke-width="2"/><rect x="520" y="528" width="76" height="44" rx="3" fill="#3A3440" stroke="#2A252F" stroke-width="2"/><rect x="600" y="528" width="76" height="44" rx="3" fill="#3A3440" stroke="#2A252F" stroke-width="2"/><rect x="680" y="528" width="76" height="44" rx="3" fill="#3A3440" stroke="#2A252F" stroke-width="2"/><rect x="760" y="528" width="76" height="44" rx="3" fill="#3A3440" stroke="#2A252F" stroke-width="2"/><rect x="840" y="528" width="76" height="44" rx="3" fill="#3A3440" stroke="#2A252F" stroke-width="2"/><rect x="920" y="528" width="76" height="44" rx="3" fill="#3A3440" stroke="#2A252F" stroke-width="2"/><rect x="1000" y="528" width="76" height="44" rx="3" fill="#3A3440" stroke="#2A252F" stroke-width="2"/><rect x="0" y="576" width="76" height="44" rx="3" fill="#3A3440" stroke="#2A252F" stroke-width="2"/><rect x="80" y="576" width="76" height="44" rx="3" fill="#3A3440" stroke="#2A252F" stroke-width="2"/><rect x="160" y="576" width="76" height="44" rx="3" fill="#3A3440" stroke="#2A252F" stroke-width="2"/><rect x="240" y="576" width="76" height="44" rx="3" fill="#3A3440" stroke="#2A252F" stroke-width="2"/><rect x="320" y="576" width="76" height="44" rx="3" fill="#3A3440" stroke="#2A252F" stroke-width="2"/><rect x="400" y="576" width="76" height="44" rx="3" fill="#3A3440" stroke="#2A252F" stroke-width="2"/><rect x="480" y="576" width="76" height="44" rx="3" fill="#3A3440" stroke="#2A252F" stroke-width="2"/><rect x="560" y="576" width="76" height="44" rx="3" fill="#3A3440" stroke="#2A252F" stroke-width="2"/><rect x="640" y="576" width="76" height="44" rx="3" fill="#3A3440" stroke="#2A252F" stroke-width="2"/><rect x="720" y="576" width="76" height="44" rx="3" fill="#3A3440" stroke="#2A252F" stroke-width="2"/><rect x="800" y="576" width="76" height="44" rx="3" fill="#3A3440" stroke="#2A252F" stroke-width="2"/><rect x="880" y="576" width="76" height="44" rx="3" fill="#3A3440" stroke="#2A252F" stroke-width="2"/><rect x="960" y="576" width="76" height="44" rx="3" fill="#3A3440" stroke="#2A252F" stroke-width="2"/><rect x="-40" y="624" width="76" height="44" rx="3" fill="#3A3440" stroke="#2A252F" stroke-width="2"/><rect x="40" y="624" width="76" height="44" rx="3" fill="#3A3440" stroke="#2A252F" stroke-width="2"/><rect x="120" y="624" width="76" height="44" rx="3" fill="#3A3440" stroke="#2A252F" stroke-width="2"/><rect x="200" y="624" width="76" height="44" rx="3" fill="#3A3440" stroke="#2A252F" stroke-width="2"/><rect x="280" y="624" width="76" height="44" rx="3" fill="#3A3440" stroke="#2A252F" stroke-width="2"/><rect x="360" y="624" width="76" height="44" rx="3" fill="#3A3440" stroke="#2A252F" stroke-width="2"/><rect x="440" y="624" width="76" height="44" rx="3" fill="#3A3440" stroke="#2A252F" stroke-width="2"/><rect x="520" y="624" width="76" height="44" rx="3" fill="#3A3440" stroke="#2A252F" stroke-width="2"/><rect x="600" y="624" width="76" height="44" rx="3" fill="#3A3440" stroke="#2A252F" stroke-width="2"/><rect x="680" y="624" width="76" height="44" rx="3" fill="#3A3440" stroke="#2A252F" stroke-width="2"/><rect x="760" y="624" width="76" height="44" rx="3" fill="#3A3440" stroke="#2A252F" stroke-width="2"/><rect x="840" y="624" width="76" height="44" rx="3" fill="#3A3440" stroke="#2A252F" stroke-width="2"/><rect x="920" y="624" width="76" height="44" rx="3" fill="#3A3440" stroke="#2A252F" stroke-width="2"/><rect x="1000" y="624" width="76" height="44" rx="3" fill="#3A3440" stroke="#2A252F" stroke-width="2"/><rect x="0" y="672" width="76" height="44" rx="3" fill="#3A3440" stroke="#2A252F" stroke-width="2"/><rect x="80" y="672" width="76" height="44" rx="3" fill="#3A3440" stroke="#2A252F" stroke-width="2"/><rect x="160" y="672" width="76" height="44" rx="3" fill="#3A3440" stroke="#2A252F" stroke-width="2"/><rect x="240" y="672" width="76" height="44" rx="3" fill="#3A3440" stroke="#2A252F" stroke-width="2"/><rect x="320" y="672" width="76" height="44" rx="3" fill="#3A3440" stroke="#2A252F" stroke-width="2"/><rect x="400" y="672" width="76" height="44" rx="3" fill="#3A3440" stroke="#2A252F" stroke-width="2"/><rect x="480" y="672" width="76" height="44" rx="3" fill="#3A3440" stroke="#2A252F" stroke-width="2"/><rect x="560" y="672" width="76" height="44" rx="3" fill="#3A3440" stroke="#2A252F" stroke-width="2"/><rect x="640" y="672" width="76" height="44" rx="3" fill="#3A3440" stroke="#2A252F" stroke-width="2"/><rect x="720" y="672" width="76" height="44" rx="3" fill="#3A3440" stroke="#2A252F" stroke-width="2"/><rect x="800" y="672" width="76" height="44" rx="3" fill="#3A3440" stroke="#2A252F" stroke-width="2"/><rect x="880" y="672" width="76" height="44" rx="3" fill="#3A3440" stroke="#2A252F" stroke-width="2"/><rect x="960" y="672" width="76" height="44" rx="3" fill="#3A3440" stroke="#2A252F" stroke-width="2"/><rect x="-40" y="720" width="76" height="44" rx="3" fill="#3A3440" stroke="#2A252F" stroke-width="2"/><rect x="40" y="720" width="76" height="44" rx="3" fill="#3A3440" stroke="#2A252F" stroke-width="2"/><rect x="120" y="720" width="76" height="44" rx="3" fill="#3A3440" stroke="#2A252F" stroke-width="2"/><rect x="200" y="720" width="76" height="44" rx="3" fill="#3A3440" stroke="#2A252F" stroke-width="2"/><rect x="280" y="720" width="76" height="44" rx="3" fill="#3A3440" stroke="#2A252F" stroke-width="2"/><rect x="360" y="720" width="76" height="44" rx="3" fill="#3A3440" stroke="#2A252F" stroke-width="2"/><rect x="440" y="720" width="76" height="44" rx="3" fill="#3A3440" stroke="#2A252F" stroke-width="2"/><rect x="520" y="720" width="76" height="44" rx="3" fill="#3A3440" stroke="#2A252F" stroke-width="2"/><rect x="600" y="720" width="76" height="44" rx="3" fill="#3A3440" stroke="#2A252F" stroke-width="2"/><rect x="680" y="720" width="76" height="44" rx="3" fill="#3A3440" stroke="#2A252F" stroke-width="2"/><rect x="760" y="720" width="76" height="44" rx="3" fill="#3A3440" stroke="#2A252F" stroke-width="2"/><rect x="840" y="720" width="76" height="44" rx="3" fill="#3A3440" stroke="#2A252F" stroke-width="2"/><rect x="920" y="720" width="76" height="44" rx="3" fill="#3A3440" stroke="#2A252F" stroke-width="2"/><rect x="1000" y="720" width="76" height="44" rx="3" fill="#3A3440" stroke="#2A252F" stroke-width="2"/></svg>
